<?xml version="1.0"?>
<svg xmlns="http://www.w3.org/2000/svg" height="512px" viewBox="-87 0 511 511.99921" width="512px"><path d="m8.5 496c-4.425781 0-8-3.578125-8-8v-320c0-4.425781 3.574219-8 8-8 4.421875 0 8 3.574219 8 8v320c0 4.421875-3.578125 8-8 8zm0 0" fill="#FFFFFF"/><path d="m24.5 512c-13.230469 0-24-10.769531-24-24 0-4.425781 3.574219-8 8-8 4.421875 0 8 3.574219 8 8 0 4.414062 3.582031 8 8 8 4.421875 0 8 3.574219 8 8 0 4.421875-3.578125 8-8 8zm0 0" fill="#FFFFFF"/><path d="m216.5 496c-4.425781 0-8-3.578125-8-8v-320c0-4.425781 3.574219-8 8-8 4.421875 0 8 3.574219 8 8v320c0 4.421875-3.578125 8-8 8zm0 0" fill="#FFFFFF"/><path d="m200.5 512c-4.425781 0-8-3.578125-8-8 0-4.425781 3.574219-8 8-8 4.414062 0 8-3.585938 8-8 0-4.425781 3.574219-8 8-8 4.421875 0 8 3.574219 8 8 0 13.230469-10.769531 24-24 24zm0 0" fill="#FFFFFF"/><path d="m200.5 512h-176c-4.425781 0-8-3.578125-8-8 0-4.425781 3.574219-8 8-8h176c4.421875 0 8 3.574219 8 8 0 4.421875-3.578125 8-8 8zm0 0" fill="#FFFFFF"/><path d="m8.492188 176c-1.199219 0-2.425782-.273438-3.570313-.839844-3.949219-1.976562-5.550781-6.785156-3.574219-10.738281l16-32c1.984375-3.949219 6.792969-5.535156 10.734375-3.574219 3.953125 1.976563 5.554688 6.785156 3.578125 10.734375l-16 32c-1.410156 2.800781-4.234375 4.417969-7.167968 4.417969zm0 0" fill="#FFFFFF"/><path d="m216.507812 176c-2.9375 0-5.761718-1.617188-7.167968-4.425781l-16-32c-1.976563-3.949219-.375-8.757813 3.574218-10.734375 3.953126-1.960938 8.761719-.375 10.738282 3.574218l16 32c1.976562 3.953126.375 8.761719-3.578125 10.738282-1.144531.574218-2.367188.847656-3.566407.847656zm0 0" fill="#FFFFFF"/><path d="m208.5 144h-192c-4.425781 0-8-3.578125-8-8 0-4.425781 3.574219-8 8-8h192c4.421875 0 8 3.574219 8 8 0 4.421875-3.578125 8-8 8zm0 0" fill="#FFFFFF"/><path d="m32.5 136c-4.425781 0-8-3.578125-8-8 0-22.058594 17.945312-40 40-40 4.421875 0 8 3.574219 8 8 0 4.421875-3.578125 8-8 8-13.230469 0-24 10.765625-24 24 0 4.421875-3.578125 8-8 8zm0 0" fill="#FFFFFF"/><path d="m192.5 136c-4.425781 0-8-3.578125-8-8 0-13.234375-10.769531-24-24-24-4.425781 0-8-3.578125-8-8 0-4.425781 3.574219-8 8-8 22.054688 0 40 17.941406 40 40 0 4.421875-3.578125 8-8 8zm0 0" fill="#FFFFFF"/><path d="m160.5 104h-96c-4.425781 0-8-3.578125-8-8 0-4.425781 3.574219-8 8-8h96c4.421875 0 8 3.574219 8 8 0 4.421875-3.578125 8-8 8zm0 0" fill="#FFFFFF"/><path d="m32.5 144c-4.425781 0-8-3.578125-8-8v-8c0-4.425781 3.574219-8 8-8 4.421875 0 8 3.574219 8 8v8c0 4.421875-3.578125 8-8 8zm0 0" fill="#FFFFFF"/><path d="m192.5 144c-4.425781 0-8-3.578125-8-8v-8c0-4.425781 3.574219-8 8-8 4.421875 0 8 3.574219 8 8v8c0 4.421875-3.578125 8-8 8zm0 0" fill="#FFFFFF"/><path d="m72.5 104c-4.425781 0-8-3.578125-8-8v-24c0-4.425781 3.574219-8 8-8 4.421875 0 8 3.574219 8 8v24c0 4.421875-3.578125 8-8 8zm0 0" fill="#FFFFFF"/><path d="m152.5 80h-80c-4.425781 0-8-3.578125-8-8 0-4.425781 3.574219-8 8-8h80c4.421875 0 8 3.574219 8 8 0 4.421875-3.578125 8-8 8zm0 0" fill="#FFFFFF"/><path d="m152.5 104c-4.425781 0-8-3.578125-8-8v-24c0-4.425781 3.574219-8 8-8 4.421875 0 8 3.574219 8 8v24c0 4.421875-3.578125 8-8 8zm0 0" fill="#FFFFFF"/><path d="m88.5 80c-4.425781 0-8-3.578125-8-8v-40c0-4.425781 3.574219-8 8-8 4.421875 0 8 3.574219 8 8v40c0 4.421875-3.578125 8-8 8zm0 0" fill="#FFFFFF"/><path d="m136.5 40h-48c-4.425781 0-8-3.578125-8-8 0-4.425781 3.574219-8 8-8h48c4.421875 0 8 3.574219 8 8 0 4.421875-3.578125 8-8 8zm0 0" fill="#FFFFFF"/><path d="m136.5 80c-4.425781 0-8-3.578125-8-8v-40c0-4.425781 3.574219-8 8-8 4.421875 0 8 3.574219 8 8v40c0 4.421875-3.578125 8-8 8zm0 0" fill="#FFFFFF"/><path d="m200.492188 40c-3.777344 0-7.136719-2.679688-7.847657-6.519531-.824219-4.34375 2.039063-8.519531 6.382813-9.335938l128-24c4.410156-.832031 8.527344 2.046875 9.335937 6.382813.824219 4.34375-2.039062 8.519531-6.382812 9.335937l-128 24c-.503907.089844-1 .136719-1.488281.136719zm0 0" fill="#FFFFFF"/><path d="m328.507812 112c-.488281 0-.984374-.046875-1.488281-.144531l-128-24c-4.34375-.816407-7.199219-4.992188-6.382812-9.335938.816406-4.335937 4.949219-7.199219 9.335937-6.382812l128 24c4.34375.816406 7.199219 4.992187 6.382813 9.335937-.710938 3.847656-4.070313 6.527344-7.847657 6.527344zm0 0" fill="#FFFFFF"/><path d="m272.5 64h-72c-4.425781 0-8-3.578125-8-8 0-4.425781 3.574219-8 8-8h72c4.421875 0 8 3.574219 8 8 0 4.421875-3.578125 8-8 8zm0 0" fill="#FFFFFF"/><path d="m328.5 64h-32c-4.425781 0-8-3.578125-8-8 0-4.425781 3.574219-8 8-8h32c4.421875 0 8 3.574219 8 8 0 4.421875-3.578125 8-8 8zm0 0" fill="#FFFFFF"/><path d="m152.5 239.992188c-4.425781 0-8-3.578126-8-8 0-17.640626-14.351562-31.992188-32-31.992188s-32 14.351562-32 31.992188c0 4.421874-3.578125 8-8 8-4.425781 0-8-3.578126-8-8 0-26.464844 21.527344-47.992188 48-47.992188s48 21.527344 48 47.992188c0 4.421874-3.578125 8-8 8zm0 0" fill="#FFFFFF"/><path d="m112.5 431.992188c-26.472656 0-48-21.527344-48-47.992188 0-4.425781 3.574219-8 8-8 4.421875 0 8 3.574219 8 8 0 17.640625 14.351562 31.992188 32 31.992188s32-14.351563 32-31.992188c0-4.425781 3.574219-8 8-8 4.421875 0 8 3.574219 8 8 0 26.464844-21.527344 47.992188-48 47.992188zm0 0" fill="#FFFFFF"/><path d="m72.5 392c-4.425781 0-8-3.578125-8-8v-152.007812c0-4.425782 3.574219-8 8-8 4.421875 0 8 3.574218 8 8v152.007812c0 4.421875-3.578125 8-8 8zm0 0" fill="#FFFFFF"/><path d="m152.5 392c-4.425781 0-8-3.578125-8-8v-152.007812c0-4.425782 3.574219-8 8-8 4.421875 0 8 3.574218 8 8v152.007812c0 4.421875-3.578125 8-8 8zm0 0" fill="#FFFFFF"/><path d="m112.5 376c-4.425781 0-8-3.578125-8-8v-120c0-4.425781 3.574219-8 8-8 4.421875 0 8 3.574219 8 8v120c0 4.421875-3.578125 8-8 8zm0 0" fill="#FFFFFF"/><path d="m216.5 488h-208c-4.425781 0-8-3.578125-8-8 0-4.425781 3.574219-8 8-8h208c4.421875 0 8 3.574219 8 8 0 4.421875-3.578125 8-8 8zm0 0" fill="#FFFFFF"/></svg>
